<svg width="35" height="35" viewBox="0 0 35 35" fill="none" xmlns="http://www.w3.org/2000/svg">
<path fill-rule="evenodd" clip-rule="evenodd" d="M24.7917 4.375C23.2446 4.375 21.7608 4.98958 20.6669 6.08354C19.5729 7.17751 18.9583 8.66124 18.9583 10.2083C18.9583 11.7554 19.5729 13.2392 20.6669 14.3331C21.7608 15.4271 23.2446 16.0417 24.7917 16.0417C26.3388 16.0417 27.8225 15.4271 28.9165 14.3331C30.0104 13.2392 30.625 11.7554 30.625 10.2083C30.625 8.66124 30.0104 7.17751 28.9165 6.08354C27.8225 4.98958 26.3388 4.375 24.7917 4.375ZM4.375 24.7917C4.375 23.2446 4.98958 21.7608 6.08354 20.6669C7.17751 19.5729 8.66124 18.9583 10.2083 18.9583C11.7554 18.9583 13.2392 19.5729 14.3331 20.6669C15.4271 21.7608 16.0417 23.2446 16.0417 24.7917C16.0417 26.3388 15.4271 27.8225 14.3331 28.9165C13.2392 30.0104 11.7554 30.625 10.2083 30.625C8.66124 30.625 7.17751 30.0104 6.08354 28.9165C4.98958 27.8225 4.375 26.3388 4.375 24.7917ZM18.9583 20.4167C18.9583 20.0299 19.112 19.659 19.3855 19.3855C19.659 19.112 20.0299 18.9583 20.4167 18.9583H29.1667C29.5534 18.9583 29.9244 19.112 30.1979 19.3855C30.4714 19.659 30.625 20.0299 30.625 20.4167V27.7083C30.625 28.4819 30.3177 29.2237 29.7707 29.7707C29.2237 30.3177 28.4819 30.625 27.7083 30.625H21.875C21.1015 30.625 20.3596 30.3177 19.8126 29.7707C19.2656 29.2237 18.9583 28.4819 18.9583 27.7083V20.4167ZM4.375 5.83333C4.375 5.44656 4.52865 5.07563 4.80214 4.80214C5.07563 4.52865 5.44656 4.375 5.83333 4.375H14.5833C14.9701 4.375 15.341 4.52865 15.6145 4.80214C15.888 5.07563 16.0417 5.44656 16.0417 5.83333V13.125C16.0417 13.8985 15.7344 14.6404 15.1874 15.1874C14.6404 15.7344 13.8985 16.0417 13.125 16.0417H7.29167C6.51812 16.0417 5.77625 15.7344 5.22927 15.1874C4.68229 14.6404 4.375 13.8985 4.375 13.125V5.83333Z" fill="#A0E9F4"/>
</svg>
