<svg width="30" height="30" viewBox="0 0 30 30" fill="none" xmlns="http://www.w3.org/2000/svg">
<path d="M3.21415 16.0717H5.357C5.92532 16.0717 6.47037 16.2975 6.87223 16.6993C7.2741 17.1012 7.49986 17.6462 7.49986 18.2146V28.9289H1.07129V18.2146C1.07129 17.6462 1.29705 17.1012 1.69892 16.6993C2.10078 16.2975 2.64583 16.0717 3.21415 16.0717ZM24.6427 16.0717H26.7856C27.3539 16.0717 27.8989 16.2975 28.3008 16.6993C28.7027 17.1012 28.9284 17.6462 28.9284 18.2146V28.9289H22.4999V18.2146C22.4999 17.6462 22.7256 17.1012 23.1275 16.6993C23.5294 16.2975 24.0744 16.0717 24.6427 16.0717ZM7.49986 28.9289H22.4999H7.49986ZM5.357 16.0717V11.786C5.357 10.081 6.0343 8.4459 7.23989 7.24031C8.44548 6.03472 10.0806 5.35742 11.7856 5.35742H18.2141C19.9191 5.35742 21.5542 6.03472 22.7598 7.24031C23.9654 8.4459 24.6427 10.081 24.6427 11.786V16.0717M7.49986 20.3574H22.4999H7.49986Z" fill="#A0E9F4"/>
<path d="M5.357 16.0717H3.21415C2.64583 16.0717 2.10078 16.2975 1.69892 16.6993C1.29705 17.1012 1.07129 17.6462 1.07129 18.2146V28.9288H7.49986M5.357 16.0717C5.92532 16.0717 6.47037 16.2975 6.87223 16.6993C7.2741 17.1012 7.49986 17.6462 7.49986 18.2146V28.9288M5.357 16.0717V11.786C5.357 10.081 6.0343 8.4459 7.23989 7.24031C8.44548 6.03472 10.0806 5.35742 11.7856 5.35742H18.2141C19.9191 5.35742 21.5542 6.03472 22.7598 7.24031C23.9654 8.4459 24.6427 10.081 24.6427 11.786V16.0717M7.49986 28.9288H22.4999M24.6427 16.0717H26.7856C27.3539 16.0717 27.8989 16.2975 28.3008 16.6993C28.7027 17.1012 28.9284 17.6462 28.9284 18.2146V28.9288H22.4999M24.6427 16.0717C24.0744 16.0717 23.5294 16.2975 23.1275 16.6993C22.7256 17.1012 22.4999 17.6462 22.4999 18.2146V28.9288M7.49986 20.3574H22.4999" stroke="#A0E9F4" stroke-linecap="round" stroke-linejoin="round"/>
</svg>
