<svg width="35" height="35" viewBox="0 0 35 35" fill="none" xmlns="http://www.w3.org/2000/svg">
<path d="M26.2498 4.375C26.607 4.37505 26.9518 4.50619 27.2187 4.74354C27.4856 4.9809 27.6562 5.30797 27.698 5.66271L27.7082 5.83333V29.1667C27.7078 29.5384 27.5654 29.8959 27.3103 30.1662C27.0551 30.4364 26.7064 30.5991 26.3353 30.6209C25.9642 30.6427 25.5989 30.5219 25.3138 30.2834C25.0288 30.0448 24.8456 29.7064 24.8017 29.3373L24.7915 29.1667V21.875H23.3332C22.976 21.875 22.6312 21.7438 22.3643 21.5065C22.0974 21.2691 21.9268 20.942 21.885 20.5873L21.8748 20.4167V11.6667C21.8748 8.44375 24.0623 4.375 26.2498 4.375ZM17.4998 4.375C17.857 4.37505 18.2018 4.50619 18.4687 4.74354C18.7356 4.9809 18.9062 5.30797 18.948 5.66271L18.9582 5.83333V13.125C18.958 14.4184 18.5282 15.675 17.7363 16.6976C16.9445 17.7202 15.8353 18.4508 14.5832 18.7746V29.1667C14.5828 29.5384 14.4404 29.8959 14.1853 30.1662C13.9301 30.4364 13.5814 30.5991 13.2103 30.6209C12.8392 30.6427 12.4739 30.5219 12.1888 30.2834C11.9038 30.0448 11.7206 29.7064 11.6767 29.3373L11.6665 29.1667V18.7746C10.464 18.4637 9.3921 17.7774 8.60658 16.8153C7.82106 15.8533 7.36292 14.6658 7.2988 13.4254L7.2915 13.125V5.83333C7.29192 5.46163 7.43424 5.10412 7.68941 4.83384C7.94457 4.56356 8.29331 4.40091 8.66437 4.37912C9.03543 4.35734 9.40081 4.47807 9.68584 4.71664C9.97088 4.95521 10.1541 5.29361 10.198 5.66271L10.2082 5.83333V13.125C10.2082 13.637 10.343 14.1399 10.5989 14.5833C10.8549 15.0267 11.2231 15.3948 11.6665 15.6508V5.83333C11.6669 5.46163 11.8092 5.10412 12.0644 4.83384C12.3196 4.56356 12.6683 4.40091 13.0394 4.37912C13.4104 4.35734 13.7758 4.47807 14.0608 4.71664C14.3459 4.95521 14.5291 5.29361 14.573 5.66271L14.5832 5.83333L14.5846 15.6508C14.9916 15.4156 15.3357 15.0855 15.5876 14.6886C15.8394 14.2917 15.9917 13.8398 16.0313 13.3715L16.0415 13.125V5.83333C16.0415 5.44656 16.1951 5.07563 16.4686 4.80214C16.7421 4.52865 17.1131 4.375 17.4998 4.375Z" fill="#A0E9F4"/>
</svg>
