<svg width="35" height="35" viewBox="0 0 35 35" fill="none" xmlns="http://www.w3.org/2000/svg">
<path d="M30.625 15.7975V28.4371C30.625 29.0173 30.3945 29.5737 29.9843 29.9839C29.5741 30.3942 29.0177 30.6246 28.4375 30.6246H22.9688C22.3886 30.6246 21.8322 30.3942 21.422 29.9839C21.0117 29.5737 20.7812 29.0173 20.7812 28.4371V22.9684C20.7812 22.6783 20.666 22.4001 20.4609 22.195C20.2558 21.9899 19.9776 21.8746 19.6875 21.8746H15.3125C15.0224 21.8746 14.7442 21.9899 14.5391 22.195C14.334 22.4001 14.2188 22.6783 14.2188 22.9684V28.4371C14.2188 29.0173 13.9883 29.5737 13.578 29.9839C13.1678 30.3942 12.6114 30.6246 12.0312 30.6246H6.5625C5.98234 30.6246 5.42594 30.3942 5.0157 29.9839C4.60547 29.5737 4.375 29.0173 4.375 28.4371V15.7975C4.37495 15.4947 4.43775 15.1953 4.55942 14.918C4.68109 14.6408 4.85898 14.3919 5.08184 14.1869L16.0193 3.8674L16.0344 3.85236C16.4371 3.48614 16.9618 3.2832 17.5062 3.2832C18.0505 3.2832 18.5752 3.48614 18.9779 3.85236C18.9826 3.85771 18.9876 3.86274 18.993 3.8674L29.9305 14.1869C30.1511 14.3929 30.3267 14.6424 30.4462 14.9196C30.5657 15.1967 30.6266 15.4956 30.625 15.7975Z" fill="#A0E9F4"/>
</svg>
