<svg width="35" height="35" viewBox="0 0 35 35" fill="none" xmlns="http://www.w3.org/2000/svg">
<path d="M5.83317 5.83366H10.2082L13.1248 2.91699H21.8748L24.7915 5.83366H29.1665C29.9401 5.83366 30.6819 6.14095 31.2289 6.68793C31.7759 7.23491 32.0832 7.97678 32.0832 8.75033V26.2503C32.0832 27.0239 31.7759 27.7657 31.2289 28.3127C30.6819 28.8597 29.9401 29.167 29.1665 29.167H5.83317C5.05962 29.167 4.31776 28.8597 3.77078 28.3127C3.22379 27.7657 2.9165 27.0239 2.9165 26.2503V8.75033C2.9165 7.97678 3.22379 7.23491 3.77078 6.68793C4.31776 6.14095 5.05962 5.83366 5.83317 5.83366ZM17.4998 10.2087C15.566 10.2087 13.7113 10.9769 12.3439 12.3443C10.9764 13.7118 10.2082 15.5665 10.2082 17.5003C10.2082 19.4342 10.9764 21.2889 12.3439 22.6563C13.7113 24.0238 15.566 24.792 17.4998 24.792C19.4337 24.792 21.2884 24.0238 22.6558 22.6563C24.0233 21.2889 24.7915 19.4342 24.7915 17.5003C24.7915 15.5665 24.0233 13.7118 22.6558 12.3443C21.2884 10.9769 19.4337 10.2087 17.4998 10.2087ZM17.4998 13.1253C18.6602 13.1253 19.773 13.5863 20.5934 14.4067C21.4139 15.2272 21.8748 16.34 21.8748 17.5003C21.8748 18.6606 21.4139 19.7734 20.5934 20.5939C19.773 21.4144 18.6602 21.8753 17.4998 21.8753C16.3395 21.8753 15.2267 21.4144 14.4062 20.5939C13.5858 19.7734 13.1248 18.6606 13.1248 17.5003C13.1248 16.34 13.5858 15.2272 14.4062 14.4067C15.2267 13.5863 16.3395 13.1253 17.4998 13.1253Z" fill="#A0E9F4"/>
</svg>
